<svg xmlns="http://www.w3.org/2000/svg" height="24" viewBox="0 96 960 960" width="24"><path d="M360 416h240v-80q0-50-35-85t-85-35q-50 0-85 35t-35 85v80Zm360 600q-83 0-141.5-58.5T520 816q0-83 58.5-141.5T720 616q83 0 141.5 58.5T920 816q0 83-58.5 141.5T720 1016Zm-230-40H240q-33 0-56.5-23.5T160 896V496q0-33 23.5-56.5T240 416h40v-80q0-83 58.5-141.5T480 136q83 0 141.5 58.5T680 336v80h40q33 0 56.5 23.5T800 496v52q-20-7-40-9.5t-40-2.5q-117 0-198.5 81.5T440 816q0 43 13.5 83.5T490 976Zm230-160q25 0 42.5-17.5T780 756q0-25-17.5-42.5T720 696q-25 0-42.5 17.5T660 756q0 25 17.5 42.5T720 816Zm0 120q30 0 56-14t43-39q-23-14-48-20.5t-51-6.5q-26 0-51 6.5T621 883q17 25 43 39t56 14Z"/></svg>